<?xml version="1.0" standalone="no"?>
<!DOCTYPE svg PUBLIC "-//W3C//DTD SVG 20010904//EN"
 "http://www.w3.org/TR/2001/REC-SVG-20010904/DTD/svg10.dtd">
<svg version="1.0" xmlns="http://www.w3.org/2000/svg"
 width="1440.000000pt" height="1440.000000pt" viewBox="0 0 1440.000000 1440.000000"
 preserveAspectRatio="xMidYMid meet">
<metadata>
Created by potrace 1.11, written by Peter Selinger 2001-2013
</metadata>
<g transform="translate(0.000000,1440.000000) scale(0.100000,-0.100000)"
fill="#000000" stroke="none">
<path d="M7538 13715 c-1 -1 -21 -5 -43 -9 -76 -11 -181 -36 -225 -53 -8 -4
-17 -7 -20 -8 -53 -18 -182 -82 -226 -112 -23 -16 -60 -40 -82 -55 -44 -30
-206 -187 -235 -228 -75 -108 -164 -265 -172 -305 -2 -5 -14 -46 -28 -91 -14
-44 -29 -100 -32 -125 -4 -24 -10 -55 -12 -69 -8 -47 -10 -422 -3 -459 5 -20
11 -54 13 -76 7 -51 34 -155 47 -177 6 -10 10 -22 10 -28 0 -35 147 -299 171
-308 5 -2 9 -8 9 -14 0 -5 12 -22 28 -37 15 -16 36 -39 48 -52 37 -43 122
-119 132 -119 6 0 12 -4 14 -8 3 -8 81 -64 123 -89 31 -18 149 -75 160 -77 6
-1 20 -8 33 -14 12 -7 22 -10 22 -6 0 3 6 2 13 -4 6 -6 30 -13 52 -17 22 -4
45 -10 50 -14 6 -3 15 -6 20 -7 123 -20 187 -26 270 -26 124 1 160 5 302 37
30 7 160 53 198 70 17 7 34 13 39 13 5 0 13 7 18 16 5 9 15 16 23 16 15 0 77
38 108 64 9 9 20 16 25 16 4 0 21 14 39 30 18 17 34 30 37 30 8 0 119 114 146
150 14 18 30 38 36 44 5 6 19 26 29 44 11 17 23 32 27 32 4 0 8 6 8 14 0 7 8
24 18 37 19 25 93 191 108 244 22 77 45 197 40 211 -3 7 -1 16 4 19 11 7 7
420 -4 470 -3 17 -9 44 -12 60 -8 45 -34 138 -45 157 -5 10 -9 23 -9 29 0 6
-11 33 -25 60 -13 27 -22 49 -19 49 3 0 -4 12 -15 26 -12 15 -21 33 -21 40 0
8 -3 14 -8 14 -4 0 -13 13 -20 28 -6 16 -21 38 -32 50 -11 12 -20 24 -20 26 0
28 -269 286 -297 286 -6 0 -18 9 -28 20 -10 11 -21 17 -25 15 -4 -3 -13 1 -19
9 -9 11 -58 35 -176 86 -23 10 -118 39 -155 47 -48 10 -55 11 -55 13 0 8 -348
23 -357 15z"/>
<path d="M6972 9755 c-3 -5 -7 -163 -8 -350 -3 -327 -6 -412 -18 -520 -14
-119 -19 -144 -42 -238 -8 -34 -16 -69 -18 -77 -2 -8 -13 -41 -24 -72 -11 -32
-18 -58 -16 -58 3 0 -2 -10 -10 -22 -9 -12 -16 -30 -16 -40 0 -10 -4 -18 -9
-18 -5 0 -12 -11 -15 -24 -3 -13 -22 -52 -41 -86 -19 -34 -35 -66 -35 -71 0
-5 -4 -9 -10 -9 -5 0 -10 -7 -10 -15 0 -8 -4 -15 -8 -15 -5 0 -16 -16 -25 -35
-9 -19 -21 -35 -27 -35 -5 0 -10 -5 -10 -11 0 -14 -63 -92 -160 -199 -143
-159 -459 -460 -482 -460 -5 0 -6 -4 -3 -10 3 -5 2 -10 -2 -10 -5 0 -30 -19
-55 -42 -39 -37 -142 -129 -198 -178 -275 -240 -554 -519 -710 -710 -25 -30
-47 -57 -50 -60 -19 -19 -70 -91 -70 -99 0 -6 -4 -11 -9 -11 -5 0 -24 -24 -42
-52 -19 -29 -37 -54 -41 -56 -5 -2 -8 -10 -8 -17 0 -7 -3 -15 -7 -17 -10 -4
-63 -85 -63 -94 0 -4 -7 -15 -15 -24 -21 -23 -175 -328 -175 -346 0 -8 -4 -14
-10 -14 -5 0 -9 -3 -8 -7 0 -5 -2 -15 -5 -23 -44 -112 -121 -348 -131 -404 -1
-6 -5 -20 -9 -31 -3 -11 -8 -31 -11 -45 -3 -14 -7 -36 -10 -50 -26 -119 -41
-219 -61 -405 -16 -144 -23 -523 -11 -543 3 -6 2 -13 -4 -17 -6 -4 -7 -11 -4
-17 4 -6 8 -34 10 -62 4 -90 16 -203 30 -294 3 -20 7 -50 9 -67 3 -25 20 -117
30 -160 1 -5 5 -28 9 -50 5 -22 14 -62 22 -90 8 -27 14 -51 14 -52 0 -2 0 -4
1 -5 0 -2 2 -10 4 -18 7 -38 96 -293 119 -344 14 -31 26 -59 26 -62 0 -27 180
-355 236 -431 13 -17 24 -36 24 -41 0 -6 3 -12 8 -14 4 -1 25 -28 46 -58 22
-30 44 -59 50 -65 6 -5 29 -32 51 -60 59 -75 269 -283 360 -357 161 -131 381
-271 559 -357 93 -45 178 -84 186 -85 3 -1 19 -7 35 -13 59 -24 90 -36 100
-39 6 -1 30 -10 55 -19 44 -16 159 -53 190 -59 8 -2 35 -9 60 -16 25 -7 52
-14 60 -15 8 -2 58 -13 110 -25 52 -12 111 -23 130 -26 19 -2 46 -6 60 -9 23
-4 53 -8 155 -21 161 -19 620 -26 775 -11 120 12 165 17 195 21 17 3 48 8 70
11 22 3 63 10 90 15 86 16 119 22 140 25 11 2 21 4 23 5 2 3 2 3 57 15 22 4
45 9 50 11 165 45 391 120 412 136 7 5 17 7 23 3 5 -3 10 -1 10 5 0 6 4 9 9 6
5 -3 14 1 21 9 7 8 19 15 27 15 14 0 245 112 323 157 49 28 184 115 190 122 3
3 32 24 65 46 33 22 62 42 65 45 3 3 30 25 60 50 30 24 65 55 77 67 12 13 24
23 27 23 10 0 188 183 260 269 151 179 266 356 375 575 68 138 99 206 100 216
0 3 13 37 29 75 16 39 29 72 30 75 0 3 3 12 6 20 18 55 38 117 42 130 2 8 13
49 24 90 38 137 72 292 65 298 -3 3 0 10 5 17 5 6 12 31 14 56 3 24 8 60 11
79 18 111 22 142 21 169 -1 17 1 31 4 31 3 0 6 19 7 43 1 23 5 62 8 87 3 25 8
150 11 278 6 195 5 232 -7 233 -76 5 -399 3 -416 -3 -13 -4 -23 -4 -23 0 0 9
-453 7 -468 -2 -7 -4 -12 -4 -12 1 0 10 -627 9 -637 -1 -4 -4 -8 -40 -9 -81
-2 -81 -12 -228 -18 -260 -2 -11 -7 -42 -10 -70 -15 -105 -18 -121 -28 -165
-5 -25 -12 -54 -15 -65 -2 -11 -7 -31 -10 -45 -2 -14 -7 -32 -10 -40 -3 -8 -7
-20 -8 -25 -9 -39 -73 -213 -101 -273 -19 -41 -34 -78 -34 -83 0 -5 -4 -9 -9
-9 -5 0 -11 -11 -15 -23 -8 -32 -126 -208 -189 -281 -55 -64 -142 -149 -192
-187 -16 -13 -32 -26 -35 -30 -6 -8 -198 -128 -205 -128 -3 -1 -29 -11 -58
-24 -56 -26 -119 -52 -127 -52 -3 0 -9 -3 -15 -6 -16 -10 -228 -59 -277 -64
-24 -3 -59 -7 -78 -10 -43 -6 -311 -6 -365 -1 -36 4 -60 7 -145 19 -14 2 -38
7 -55 11 -16 3 -40 9 -52 11 -43 9 -58 14 -128 36 -38 13 -72 23 -75 24 -23 6
-110 47 -180 84 -149 78 -280 183 -392 316 -78 93 -78 93 -78 104 0 5 -3 11
-7 13 -32 14 -180 321 -183 380 -1 4 -7 23 -16 43 -8 19 -12 35 -9 35 2 0 0
11 -5 26 -9 23 -16 55 -25 114 -2 14 -7 36 -10 50 -20 88 -33 419 -21 545 16
153 21 184 51 310 20 85 21 86 27 105 3 8 13 38 23 65 23 69 145 315 156 315
5 0 9 5 9 11 0 11 82 132 107 157 7 7 13 16 13 20 0 4 17 25 36 47 20 22 62
69 94 105 81 91 294 299 418 408 29 26 71 63 92 82 21 19 64 58 96 85 32 28
68 59 80 70 13 11 49 42 81 70 72 62 440 431 470 472 12 16 33 41 45 54 13 14
34 40 48 58 14 17 35 44 48 59 23 26 97 129 117 161 6 9 13 18 16 21 5 4 118
190 162 265 25 43 127 259 128 270 0 2 11 29 24 60 14 30 22 55 19 55 -4 0 -2
6 4 13 13 15 87 261 97 322 2 11 4 20 5 20 2 0 7 25 25 125 3 14 7 36 10 49 2
13 7 49 10 80 4 31 8 67 11 81 16 104 20 432 10 1024 l-2 119 -52 -1 c-28 0
-55 -1 -59 -3 -5 -1 -12 0 -18 1 -28 6 -115 4 -115 -3 0 -5 -5 -5 -11 -1 -15
9 -262 9 -277 0 -6 -3 -13 -3 -15 1 -3 5 -34 7 -69 5 -34 -2 -70 -3 -78 -3
-63 2 -216 2 -220 0 -3 -1 -9 0 -15 1 -30 6 -135 4 -135 -3 0 -5 -5 -5 -11 -1
-10 6 -129 9 -154 4 -5 -1 -14 -1 -20 0 -28 6 -135 4 -135 -2 0 -4 -7 -5 -15
-1 -27 10 -147 9 -153 -2z"/>
</g>
</svg>
